<?xml version="1.0" encoding="utf-8"?>
<svg viewBox="0 0 512 301" xmlns="http://www.w3.org/2000/svg" xmlns:bx="https://boxy-svg.com">
  <defs>
    <filter id="outline-filter-0" x="-500%" y="-500%" width="1000%" height="1000%" bx:preset="outline 1 4 rgba(255,255,255,1)">
      <feMorphology in="SourceAlpha" result="dilated" operator="dilate" radius="4"/>
      <feFlood flood-color="rgba(255,255,255,1)" result="flood"/>
      <feComposite in="flood" in2="dilated" operator="in" result="outline"/>
      <feMerge>
        <feMergeNode in="outline"/>
        <feMergeNode in="SourceGraphic"/>
      </feMerge>
    </filter>
  </defs>
  <path d="M 493.967 175.632 C 500.307 174.606 510.218 174.997 511.096 171.008 C 512.265 165.762 502.374 166.882 496.181 166.27 C 490.686 165.715 485.224 165.033 479.761 164.41 C 495.168 145.715 495.429 144.349 491.731 144.153 C 460.396 142.462 477.537 129.28 473.651 121.142 C 484.44 120.14 494.541 118.31 503.064 114.001 C 498.071 110.766 488.556 114.001 485.684 109.337 C 480.649 97.912 455.456 101.904 446.568 93.411 C 446.643 92.616 446.601 91.818 446.442 91.027 C 448.897 89.64 451.351 88.246 453.806 86.841 L 453.806 86.841 L 464.177 85.821 L 464.177 85.821 C 472.084 84.45 476.137 79.927 471.291 77.584 C 461.159 72.675 449.074 74.477 438.494 78.709 C 413.719 79.554 408.558 67.177 396.714 59.341 L 405.352 52.493 C 417.99 49.98 417.99 41.808 426.91 37.598 C 432.133 38.975 437.93 39.93 440.844 36.183 C 443.549 32.684 439.914 30.089 433.532 29.676 C 422.043 28.936 414.804 32.13 411.545 38.222 L 411.545 38.222 C 393.038 50.621 370.957 42.303 350.172 41.521 C 338.192 41.521 325.522 43.008 316.519 36.647 C 316.671 34.219 316.824 31.794 316.977 29.373 C 330.932 21.55 332.645 12.659 322.086 1.099 C 317.782 15.148 302.157 22.085 280.859 25.664 L 280.859 25.664 L 239.059 36.1 L 230.18 33.051 C 211.986 31.057 208.758 19.118 192.882 15.562 C 187.796 13.376 181.58 8.311 176.453 11.365 C 168.399 16.181 180.901 19.823 183.659 24.19 C 183.356 29.973 191.503 32.992 197.029 36.87 L 197.029 36.87 L 185.936 43.608 C 175.732 44.978 166.248 43.701 157.14 41.177 L 157.14 41.177 L 157.14 41.177 L 155.573 40.682 L 155.573 40.682 C 153.578 36.188 153.484 31.238 145.629 28.195 L 145.629 28.195 C 144.658 20.989 140.407 14.746 128.02 11.447 C 126.055 10.928 120.708 11.907 119.893 12.922 C 113.469 21.13 129.712 24.558 132.845 30.854 C 133.346 31.827 135.978 32.473 137.629 33.278 L 133.159 41.533 L 133.159 41.533 L 133.159 41.533 C 126.965 45.917 115.976 48.856 119.152 56.06 C 116.478 59.791 110.284 59.617 104.696 60.141 C 102.982 59.43 100.959 58.988 98.837 58.859 C 94.658 51.863 85.363 44.611 73.654 49.491 C 63.439 53.758 70.269 61.675 82.94 65.434 L 82.94 65.434 C 85.3 67.125 87.691 68.816 90.094 70.512 L 90.094 70.512 C 90.219 71.993 90.335 73.456 90.46 74.936 L 77.727 81.978 L 77.727 81.978 C 72.954 81.624 68.191 81.274 63.428 80.907 C 54.508 78.073 43.092 74.989 38.057 81.764 C 33.504 87.89 44.837 89.634 54.08 90.402 C 55.41 93.123 56.747 95.834 58.091 98.535 L 58.091 98.535 L 58.091 98.535 C 50.675 104.505 43.248 110.47 35.812 116.432 L 35.812 116.432 C 28.198 118.835 12.259 113.196 12.687 121.475 C 12.916 126.343 27.373 124.278 35.592 125.036 L 42.611 131.98 L 22.547 142.852 C 15.758 142.759 7.527 142.415 4.227 145.942 C 0.372 150.075 7.068 153.456 13 154.686 C 33.44 158.837 26.641 164.451 16.876 170.565 C 1.417 184.422 40.721 183.041 37.431 193.5 C 34.736 200.494 7.642 201.451 22.213 212.738 C 32.512 218.327 44.523 214.975 55.929 214.743 L 55.929 214.743 L 55.929 214.743 C 60.107 218.339 69.329 222.962 67.732 225.369 C 56.994 241.734 78.416 245.407 96.977 250.484 C 97.718 254.651 99.233 258.447 109.083 258.097 C 117.376 261.794 99.683 275.988 121.084 274.42 C 123.016 274.607 125.555 274.333 128.908 273.417 C 144.95 268.339 159.814 265.004 159.897 280.757 C 159.897 290.737 170.896 290.34 182.291 287.659 C 191.044 285.607 196.768 279.538 208.654 281.666 C 218.639 285.28 232.792 283.666 240.834 289.7 L 240.834 289.7 C 259.531 297.651 278.436 308.004 294.918 288.365 C 301.185 285.386 307.849 282.582 308.915 277.497 L 329.125 281.246 C 357.515 299.639 348.971 271.162 364.074 272.677 L 377.527 273.225 C 383.48 278.402 389.496 286.266 402.417 280.908 C 410.303 277.644 410.898 270.416 394.74 269.208 L 394.74 269.208 L 394.74 269.208 C 392.108 264.049 404.527 263.087 404.224 258.582 L 404.224 258.582 C 412.016 249.446 434.211 251.248 442.87 242.748 L 443.016 242.783 C 452.553 245.983 462.506 248.151 473.933 246.834 C 483.407 241.71 486.582 235.228 486.947 228.138 C 501.173 218.229 486.133 217.716 474.549 216.1 L 474.549 216.1 C 470.841 210.504 475.907 205.643 478.612 200.576 C 479.396 199.51 480.095 198.425 480.701 197.324 C 491.512 197.108 504.484 199.993 510.919 191.144 C 500.474 187.78 490.582 188.992 480.89 189.126 C 476.095 181.84 484.263 178.505 493.967 175.632 Z M 308.915 277.446 L 308.915 277.446 Z" style="fill: rgb(145, 28, 187);"/>
  <path d="M 132.95 220.764 C 132.95 226.454 137.7 230.104 143.39 230.104 L 369.98 230.104 C 375.67 230.104 380.9 226.454 380.9 220.764 L 380.9 209.434 L 132.9 209.434 Z" fill="#fff"/>
  <path d="M 359.68 197.844 L 380.28 197.844 C 380.28 131.724 331.28 79.034 267.28 73.844 L 267.28 63.534 L 277.28 63.534 C 285.232 63.534 290.202 54.925 286.226 48.039 C 284.381 44.843 280.97 42.874 277.28 42.874 L 236.08 42.874 C 228.128 42.874 223.158 51.482 227.134 58.369 C 228.979 61.565 232.389 63.534 236.08 63.534 L 246.59 63.534 L 246.59 73.794 C 182.54 78.984 133.14 131.714 133.14 197.844 L 359.68 197.844 Z M 256.68 94.784 C 305.693 94.592 347.985 129.122 357.6 177.184 L 155.76 177.184 C 165.375 129.119 207.673 94.587 256.69 94.784 Z" fill="#fff"/>
  <path d="M 303.36 116.864 L 298.14 125.754 C 313.644 134.787 325.783 148.625 332.72 165.174 L 342.23 161.174 C 334.415 142.583 320.774 127.034 303.36 116.864 Z" fill="#fff"/>
  <text style="fill: rgb(145, 28, 187); font-family: &quot;Bowlby One SC&quot;; font-size: 30px; font-weight: 700; text-anchor: middle; text-transform: lowercase; white-space: pre; filter: url(#outline-filter-0);" transform="matrix(1, -0.06714, 0, 0.99302, 89.275864, 48.655678)"><tspan x="167.439" y="205.597">RESTAURANT</tspan><tspan x="167.439" dy="1em">​</tspan><tspan>SEARCH</tspan></text>
</svg>