<?xml version="1.0" encoding="utf-8"?>
<svg version="1.0" width="1536.000000pt" height="1536.000000pt" viewBox="113 117 1314 1314" preserveAspectRatio="xMidYMid meet" xmlns="http://www.w3.org/2000/svg">
  <rect x="91.152" y="104.342" width="1385.785" height="1334.286" style="fill: rgb(145, 28, 187);"/>
  <g transform="translate(0.000000,1536.000000) scale(0.100000,-0.100000)" fill="#000000" stroke="none">
    <path d="M8045 13161 c-91 -33 -181 -90 -274 -176 -108 -101 -123 -135 -190 -455 -143 -677 -264 -1515 -317 -2200 -21 -284 -30 -851 -15 -1070 21 -304 74 -634 109 -674 9 -10 76 -47 147 -81 190 -91 270 -158 332 -279 24 -48 24 -50 17 -232 -4 -115 -11 -187 -18 -193 -19 -16 -540 -286 -746 -388 -449 -220 -807 -360 -1135 -442 -180 -45 -276 -61 -280 -47 -5 12 -22 198 -60 631 -14 160 -41 448 -60 640 -30 302 -53 583 -80 951 l-7 91 49 18 c203 76 388 209 535 385 211 252 347 559 415 940 23 129 26 172 27 395 1 275 -10 374 -64 605 -218 915 -836 1563 -1456 1526 -405 -24 -773 -324 -1015 -831 -104 -218 -179 -468 -221 -740 -29 -187 -31 -550 -5 -730 101 -686 452 -1247 934 -1489 132 -66 314 -116 423 -116 27 0 51 -3 53 -7 7 -12 36 -281 47 -443 5 -80 14 -280 20 -445 30 -925 43 -1416 37 -1421 -10 -11 -259 16 -385 42 -224 45 -444 127 -644 240 l-98 55 0 465 0 464 -1366 0 -1365 0 59 -112 c33 -62 140 -266 237 -453 98 -187 222 -424 276 -527 55 -104 99 -194 99 -202 0 -7 -66 -134 -146 -282 -80 -148 -208 -384 -284 -524 -76 -140 -161 -295 -188 -345 l-49 -90 1054 -3 1053 -2 0 -418 0 -417 118 -116 c309 -306 624 -509 981 -633 173 -60 365 -96 604 -112 l97 -6 -1 -362 c0 -198 -4 -494 -8 -656 -5 -176 -5 -319 1 -354 31 -203 207 -337 439 -337 48 0 109 5 135 12 132 32 251 123 298 229 43 95 43 154 2 405 -34 212 -138 971 -151 1105 l-7 65 111 32 c311 91 617 222 1150 490 234 117 425 212 426 210 9 -11 -100 -1522 -136 -1882 -26 -268 -23 -358 15 -442 72 -157 254 -252 456 -240 181 11 317 95 382 234 40 84 44 148 24 358 -18 199 -49 677 -71 1095 -17 332 -55 1150 -55 1185 0 24 -16 15 325 172 386 179 749 300 1065 357 192 34 240 39 240 25 0 -20 -58 -475 -126 -984 -87 -657 -184 -1325 -246 -1690 -37 -226 -49 -315 -44 -361 18 -211 184 -358 426 -379 175 -16 351 64 425 189 58 99 57 85 56 676 -1 300 3 759 8 1020 21 983 33 1476 40 1501 l6 26 118 -23 c160 -33 335 -92 495 -169 l132 -64 0 -500 0 -501 1361 0 c1188 0 1360 2 1356 15 -5 12 -316 587 -591 1092 -36 66 -66 127 -66 134 0 7 33 76 74 153 400 766 576 1104 581 1119 7 16 -45 17 -994 17 l-1001 0 0 432 0 431 -82 81 c-363 355 -728 581 -1123 695 -38 11 -87 23 -108 27 l-38 6 5 62 c3 33 13 174 22 311 9 138 17 251 19 253 1 1 40 7 86 13 282 35 476 141 554 303 144 301 268 1358 334 2851 6 127 13 291 17 366 l6 136 -67 8 c-47 5 -70 3 -75 -5 -4 -6 -10 -104 -14 -218 -12 -399 -56 -1022 -96 -1372 -61 -533 -128 -822 -216 -938 -21 -27 -32 -33 -57 -30 -25 2 -36 11 -49 38 -80 163 -82 919 -8 2100 11 173 23 347 26 386 l7 72 -63 7 c-34 4 -65 3 -69 -1 -4 -5 -13 -92 -20 -194 -27 -421 -86 -1019 -137 -1400 -55 -414 -124 -739 -185 -871 -34 -74 -59 -99 -96 -99 -93 0 -132 445 -103 1185 16 403 59 1067 87 1353 l6 62 -72 0 c-56 0 -71 -3 -71 -15 0 -68 -75 -828 -116 -1175 -101 -862 -210 -1355 -302 -1368 -55 -8 -102 82 -128 247 -22 135 -29 575 -15 861 20 401 85 1167 120 1425 5 33 8 61 7 62 -1 1 -34 5 -73 9 l-70 7 -7 -44 c-17 -121 -84 -819 -110 -1159 -53 -668 -70 -1074 -63 -1504 9 -638 50 -767 290 -923 103 -67 212 -108 390 -147 26 -6 27 -8 27 -74 -1 -71 -15 -325 -26 -453 l-6 -76 -167 -6 c-264 -10 -460 -41 -720 -113 -307 -86 -649 -223 -1011 -404 -78 -39 -145 -68 -148 -65 -3 3 -5 1139 -4 2523 2 1602 -1 2532 -7 2557 -20 81 -83 103 -186 66z" style="paint-order: fill; fill-rule: nonzero; fill: rgb(10, 1, 1);"/>
  </g>
  <text style="fill: rgb(145, 28, 187); font-family: &quot;Bowlby One SC&quot;; font-size: 122px; letter-spacing: 20px; white-space: pre;" transform="matrix(1, 0, 0, 1.021076, -93.035629, -17.263298)" x="310.119" y="952.247">SEM IMAGEM</text>
</svg>